Coordinates
version=1
nRows=54
nColumns=12
inDegrees=yes

Units are S.I. units (second, meters, Newtons, ...)
Angles are in degrees

endheader
time	SC_y	SC_z	SC_x	AC_y	AC_z	AC_x	GH_y	GH_z	GH_yy	EL_x	PS_y
       0.0              -34.69          -3.07          11.48          41.07         -8.945          -3.92         -5.463          78.06         -54.17          14.39          65.62
   0.03054              -34.69         -3.066          11.48          41.07         -8.946          -3.92         -5.465          78.05         -54.18           14.4          65.63
   0.06108              -34.68         -3.063          11.49          41.07         -8.947         -3.919         -5.468          78.04         -54.19          14.41          65.63
   0.09162              -34.68         -3.059          11.49          41.08         -8.948         -3.918          -5.47          78.03          -54.2          14.43          65.64
    0.1222              -34.68         -3.055           11.5          41.08         -8.949         -3.918         -5.473          78.02         -54.22          14.44          65.64
    0.1527              -34.68         -3.051          11.51          41.09         -8.951         -3.917         -5.476          78.01         -54.23          14.45          65.65
    0.1832              -34.67         -3.047          11.52          41.09         -8.952         -3.916         -5.479          77.99         -54.24          14.47          65.65
    0.2138              -34.67         -3.042          11.52           41.1         -8.954         -3.915         -5.483          77.98         -54.26          14.48          65.66
    0.2443              -34.67         -3.037          11.53           41.1         -8.955         -3.914         -5.486          77.96         -54.27           14.5          65.67
    0.2749              -34.66         -3.032          11.54          41.11         -8.957         -3.913          -5.49          77.95         -54.29          14.52          65.68
    0.3054              -34.66         -3.026          11.55          41.12         -8.959         -3.912         -5.494          77.93         -54.31          14.54          65.68
    0.3359              -34.65         -3.019          11.56          41.12         -8.961         -3.911         -5.499          77.91         -54.33          14.56          65.69
    0.3665              -34.65         -3.013          11.58          41.13         -8.964          -3.91         -5.504          77.89         -54.35          14.58           65.7
     0.397              -34.64         -3.005          11.59          41.14         -8.966         -3.909         -5.509          77.87         -54.37           14.6          65.71
    0.4276              -34.64         -2.997           11.6          41.15         -8.969         -3.907         -5.514          77.84          -54.4          14.63          65.72
    0.4581              -34.63         -2.989          11.62          41.16         -8.972         -3.906          -5.52          77.82         -54.42          14.66          65.73
    0.4886              -34.62         -2.979          11.64          41.17         -8.975         -3.904         -5.527          77.79         -54.45          14.69          65.75
    0.5192              -34.62         -2.969          11.65          41.18         -8.978         -3.902         -5.534          77.76         -54.48          14.72          65.76
    0.5497              -34.61         -2.958          11.67          41.19         -8.982           -3.9         -5.542          77.72         -54.52          14.76          65.78
    0.5803               -34.6         -2.946          11.69          41.21         -8.986         -3.898         -5.551          77.68         -54.56           14.8          65.79
    0.6108              -34.59         -2.932          11.72          41.22          -8.99         -3.896          -5.56          77.64          -54.6          14.84          65.81
    0.6413              -34.58         -2.918          11.74          41.24         -8.995         -3.893         -5.571           77.6         -54.64          14.89          65.83
    0.6719              -34.57         -2.901          11.77          41.26           -9.0          -3.89         -5.582          77.55          -54.7          14.94          65.85
    0.7024              -34.56         -2.883          11.81          41.28         -9.006         -3.887         -5.595          77.49         -54.75           15.0          65.88
    0.7329              -34.54         -2.863          11.84           41.3         -9.013         -3.884         -5.609          77.43         -54.81          15.07           65.9
    0.7635              -34.53         -2.841          11.88          41.33         -9.021          -3.88         -5.625          77.36         -54.88          15.14          65.94
     0.794              -34.51         -2.816          11.93          41.35         -9.029         -3.875         -5.643          77.29         -54.96          15.22          65.97
    0.8246              -34.49         -2.788          11.98          41.39         -9.038          -3.87         -5.662           77.2         -55.05          15.32          66.01
    0.8551              -34.47         -2.756          12.03          41.42         -9.049         -3.865         -5.685           77.1         -55.15          15.42          66.05
    0.8856              -34.44          -2.72           12.1          41.46         -9.061         -3.858         -5.711          76.99         -55.26          15.54           66.1
    0.9162              -34.41         -2.678          12.17          41.51         -9.075         -3.851          -5.74          76.87         -55.39          15.67          66.16
    0.9467              -34.38         -2.631          12.25          41.57          -9.09         -3.843         -5.773          76.72         -55.54          15.83          66.22
    0.9773              -34.34         -2.576          12.35          41.63         -9.108         -3.833         -5.812          76.55         -55.71          16.01           66.3
     1.008               -34.3         -2.513          12.46           41.7         -9.129         -3.822         -5.857          76.36          -55.9          16.22          66.38
     1.038              -34.24         -2.438          12.59          41.78         -9.154         -3.809         -5.909          76.13         -56.14          16.46          66.48
     1.069              -34.18         -2.351          12.75          41.88         -9.183         -3.793         -5.971          75.86         -56.41          16.75           66.6
     1.099              -34.11         -2.246          12.93           42.0         -9.218         -3.775         -6.045          75.54         -56.73          17.09          66.74
      1.13              -34.02         -2.121          13.16          42.15         -9.259         -3.753         -6.133          75.16         -57.12           17.5          66.91
     1.161              -33.91          -1.97          13.42          42.32         -9.309         -3.727          -6.24           74.7         -57.59          17.99          67.12
     1.191              -33.78         -1.786          13.75          42.53         -9.371         -3.694         -6.371          74.13         -58.17           18.6          67.37
     1.222              -33.62         -1.558          14.15          42.79         -9.446         -3.654         -6.532          73.43         -58.87          19.34          67.68
     1.252              -33.42         -1.274          14.66          43.11         -9.541         -3.604         -6.732          72.56         -59.76          20.27          68.07
     1.283              -33.17        -0.9158          15.29          43.52         -9.659         -3.541         -6.985          71.46         -60.87          21.44          68.55
     1.313              -32.85        -0.4609           16.1          44.04          -9.81         -3.461         -7.307          70.07         -62.29          22.93          69.17
     1.344              -32.44         0.1215          17.13           44.7          -10.0         -3.358         -7.719          68.29          -64.1          24.84          69.96
     1.374              -31.91         0.8688          18.46          45.55         -10.25         -3.227         -8.247           66.0         -66.42          27.28          70.98
     1.405              -31.24          1.823          20.15          46.64         -10.57         -3.059         -8.921          63.07         -69.39          30.41          72.28
     1.435              -30.39          3.024          22.27          48.01         -10.97         -2.847          -9.77          59.39         -73.13          34.34          73.91
     1.466              -29.36          4.486          24.87          49.67         -11.45          -2.59          -10.8          54.91         -77.68          39.13           75.9
     1.496              -28.16          6.182          27.87           51.6         -12.01         -2.291          -12.0          49.72         -82.95          44.67          78.21
     1.527              -26.86          8.018          31.13           53.7         -12.62         -1.968          -13.3          44.09         -88.66          50.68           80.7
     1.558              -25.57          9.853          34.38          55.79         -13.23         -1.645          -14.6          38.46         -94.37          56.69           83.2
     1.588              -24.37          11.55          37.38          57.72          -13.8         -1.346          -15.8          33.27         -99.65          62.24          85.51
     1.619              -23.34          13.01          39.98          59.38         -14.28         -1.089         -16.83          28.79         -104.2          67.03           87.5
